<svg width="113" height="36" viewBox="0 0 113 36" fill="none" xmlns="http://www.w3.org/2000/svg">
<path d="M7.5 27.9904C9.86806 29.3576 12.5648 30.0515 15.2987 29.997C18.0325 29.9426 20.6995 29.1419 23.0113 27.6815C25.323 26.2211 27.1916 24.1565 28.415 21.7111C29.6384 19.2656 30.17 16.5322 29.9524 13.8065C29.7349 11.0808 28.7764 8.46636 27.1806 6.24592C25.5848 4.02548 23.4123 2.2835 20.8982 1.20829C18.3841 0.133086 15.6238 -0.234428 12.916 0.145481C10.2081 0.525389 7.65554 1.63827 5.53434 3.3638L15 15L7.5 27.9904Z" fill="#67B044"/>
<path d="M7.5 27.9904C9.86806 29.3576 12.5648 30.0515 15.2987 29.997C18.0325 29.9426 20.6995 29.1419 23.0113 27.6815C25.323 26.2211 27.1916 24.1565 28.415 21.7111C29.6384 19.2656 30.17 16.5322 29.9524 13.8065C29.7349 11.0808 28.7764 8.46636 27.1806 6.24592C25.5848 4.02548 23.4123 2.2835 20.8982 1.20829C18.3841 0.133086 15.6238 -0.234428 12.916 0.145481C10.2081 0.525389 7.65554 1.63827 5.53434 3.3638L15 15L7.5 27.9904Z" fill="white" fill-opacity="0.2"/>
<path d="M16 15H32C32.5304 15 33.0391 15.2107 33.4142 15.5858C33.7893 15.9609 34 16.4696 34 17V23C34 25.6522 32.9464 28.1957 31.0711 30.0711C29.1957 31.9464 26.6522 33 24 33C22.6868 33 21.3864 32.7413 20.1732 32.2388C18.9599 31.7362 17.8575 30.9997 16.9289 30.0711C15.0536 28.1957 14 25.6522 14 23V17C14 16.4696 14.2107 15.9609 14.5858 15.5858C14.9609 15.2107 15.4696 15 16 15V15Z" stroke="#1A162E" stroke-width="1.5" stroke-linecap="round" stroke-linejoin="round"/>
<path d="M20 22L24 26L28 22" stroke="#1A162E" stroke-width="1.5" stroke-linecap="round" stroke-linejoin="round"/>
<path d="M55.232 22.144C56.528 22.144 57.568 21.792 58.336 21.072C59.104 20.352 59.488 19.504 59.488 18.528C59.488 17.616 59.184 16.864 58.592 16.288C58 15.696 56.928 15.168 55.376 14.704C53.84 14.24 53.056 13.728 53.056 12.784C53.056 11.776 53.936 11.072 55.152 11.072C56.352 11.072 57.2 11.664 57.68 12.832L59.312 11.952C58.72 10.4 57.312 9.296 55.2 9.296C54.032 9.296 53.056 9.648 52.24 10.352C51.44 11.04 51.04 11.888 51.04 12.896C51.04 13.856 51.36 14.624 52 15.184C52.608 15.728 53.584 16.208 54.944 16.64C56.736 17.2 57.456 17.728 57.456 18.64C57.456 19.68 56.544 20.352 55.264 20.352C53.904 20.352 52.816 19.616 52.288 18.272L50.624 19.136C51.328 21.056 53.04 22.144 55.232 22.144ZM66.41 16.208C66.41 16.688 66.138 16.928 65.61 16.928H64.554C63.05 16.928 61.002 17.552 61.002 19.536V19.632C61.002 20.368 61.274 20.976 61.818 21.44C62.362 21.904 63.05 22.144 63.882 22.144C65.034 22.144 65.866 21.712 66.394 20.832V22H68.266V16.56C68.266 15.968 68.17 15.456 67.978 15.024C67.45 13.856 66.378 13.28 64.778 13.28C63.034 13.28 61.818 14 61.146 15.456L62.602 16.288C63.034 15.376 63.754 14.928 64.73 14.928C65.802 14.928 66.41 15.504 66.41 16.208ZM66.394 18.544C66.394 19.824 65.562 20.624 64.266 20.624C63.45 20.624 62.906 20.16 62.906 19.456C62.906 19.088 63.082 18.8 63.418 18.592C63.77 18.384 64.154 18.272 64.554 18.272H66.394V18.544ZM69.4908 13.456L73.1068 22H75.0108L78.5788 13.456H76.5788L74.0668 19.776L71.5548 13.456H69.4908ZM80.219 11.568C80.715 12.064 81.483 12.064 81.979 11.568C82.475 11.072 82.475 10.304 81.979 9.808C81.483 9.296 80.715 9.296 80.219 9.808C79.723 10.304 79.723 11.072 80.219 11.568ZM82.059 13.456H80.155V22H82.059V13.456ZM92.2721 22V16.736C92.2721 14.688 91.1681 13.28 89.0721 13.28C87.9841 13.28 87.1201 13.728 86.4641 14.608V13.456H84.6081V22H86.5121V17.248C86.5121 15.952 87.2801 15.088 88.4801 15.088C89.7441 15.088 90.3681 15.936 90.3681 17.216V22H92.2721ZM98.3011 22.064C98.7491 22.064 99.2451 21.952 99.8051 21.712C100.365 21.472 100.797 21.12 101.101 20.624V21.968C101.101 23.68 99.9971 24.576 98.5091 24.576C97.3091 24.576 96.4131 23.968 95.8211 22.768L94.2371 23.68C95.0211 25.408 96.4611 26.272 98.5411 26.272C99.8851 26.272 100.957 25.872 101.773 25.088C102.589 24.304 103.005 23.232 103.005 21.888V13.456H101.149V14.752C100.845 14.272 100.413 13.92 99.8691 13.68C99.3251 13.44 98.8291 13.312 98.3651 13.312C97.1011 13.312 96.0771 13.76 95.2931 14.656C94.5251 15.552 94.1411 16.56 94.1411 17.696C94.1411 18.88 94.5251 19.904 95.3091 20.768C96.0931 21.632 97.1011 22.064 98.3011 22.064ZM101.133 17.664C101.133 18.416 100.893 19.056 100.413 19.584C99.9491 20.096 99.3411 20.352 98.5891 20.352C97.8371 20.352 97.2291 20.096 96.7491 19.584C96.2851 19.056 96.0451 18.416 96.0451 17.664C96.0451 16.912 96.2851 16.272 96.7491 15.776C97.2131 15.264 97.8371 15.008 98.5891 15.008C99.3411 15.008 99.9651 15.264 100.429 15.776C100.893 16.288 101.133 16.912 101.133 17.664ZM108.329 22.144C109.289 22.144 110.073 21.904 110.665 21.408C111.257 20.912 111.561 20.272 111.561 19.488C111.561 18.16 110.537 17.232 108.601 16.8C107.497 16.56 107.017 16.272 107.017 15.712C107.017 15.248 107.625 14.88 108.217 14.88C109.033 14.88 109.625 15.264 110.009 16.032L111.481 15.2C110.889 13.92 109.817 13.28 108.281 13.28C107.449 13.28 106.729 13.52 106.105 14.016C105.481 14.512 105.177 15.136 105.177 15.904C105.177 16.512 105.385 17.024 105.785 17.456C106.249 17.952 106.969 18.288 107.913 18.48C109.081 18.72 109.673 19.104 109.673 19.6C109.673 20.176 109.049 20.544 108.329 20.544C107.417 20.544 106.745 20.08 106.281 19.168L104.793 20C105.449 21.424 106.633 22.144 108.329 22.144Z" fill="#1A162E"/>
</svg>
